<?xml version="1.0" standalone="no"?>
<!DOCTYPE svg PUBLIC "-//W3C//DTD SVG 20010904//EN" "http://www.w3.org/TR/2001/REC-SVG-20010904/DTD/svg10.dtd">
<!-- Created using Karbon, part of Calligra: http://www.calligra.org/karbon -->
<svg xmlns="http://www.w3.org/2000/svg" xmlns:xlink="http://www.w3.org/1999/xlink" width="595.277pt" height="841.891pt">
<defs/>
<g id="layer0">
  <g id="g3465" transform="translate(275.413, 157.82)" fill="none">
   <path id="use3418" transform="translate(11.4403, 11.4403)" fill="#d5e5ff" stroke="#80b3ff" stroke-width="11.44029999000" stroke-linecap="round" stroke-linejoin="round" d="M170.39 85.1951C170.39 132.247 132.247 170.39 85.1951 170.39C38.1431 170.39 0 132.247 0 85.1951C0 38.1431 38.1431 0 85.1951 0C132.247 0 170.39 38.1431 170.39 85.1951Z"/>
   <g id="g3409" transform="translate(26.6791, 16.6998)" fill="none">
    <path id="path3403" transform="translate(3.21508, 3.20159)" fill="#ffffff" stroke="#000000" stroke-width="3.21507001000" stroke-linecap="round" stroke-linejoin="round" d="M50.8287 176.843C50.1961 173.684 51.0649 137.689 50.1961 132.614C46.1965 128.499 37.1908 125.155 31.4254 118.923C26.3442 113.432 24.2983 105.802 19.6148 99.9677C17.1785 96.9332 12.2757 91.0803 9.28039 88.5944C6.74018 86.4862 0.0596131 83.2567 0.000546472 79.9588C-0.0558243 76.8117 4.26097 75.5548 7.38225 75.1145C12.804 74.3507 23.4779 79.9324 25.5201 82.4862C26.0829 83.1903 33.8966 90.0425 36.909 94.281C40.0551 93.6229 37.7444 82.3192 37.9635 79.1165C38.2744 74.5737 38.3853 69.4279 38.1744 68.5856C37.9635 67.7432 36.909 61.8456 36.6981 59.5288C36.4872 57.2123 34.7999 50.4724 34.7999 49.4195C34.7999 48.3662 33.7454 40.5733 33.7454 39.0992C33.7454 37.6247 33.7205 33.5986 33.3236 30.4636C32.9336 27.3839 32.3471 20.4795 32.9018 15.5097C33.3172 11.7878 37.8211 8.198 41.76 11.0868C43.3797 12.2748 44.0528 15.2436 44.9235 16.9841C44.4741 14.929 43.2727 8.83842 43.8687 5.40007C45.0437 -1.37379 52.2873 -1.07061 54.2031 2.45141C56.141 6.01423 57.3277 14.2784 58.8431 19.0903C60.662 24.8655 61.6957 32.973 62.8505 39.3098C65.1872 44.0441 66.2194 51.4053 68.7557 55.7379C69.4735 56.9637 70.9224 58.3585 72.341 58.2653C73.8206 58.1681 73.8175 58.2653 76.1375 53.6316C78.4575 48.9979 78.147 49.6071 79.301 47.7344C80.9883 44.9964 81.8318 42.0478 83.0971 40.1521C83.7993 39.1007 86.0551 33.9498 87.1044 30.8849C88.0044 28.2563 89.0723 25.5498 89.8462 22.8814C90.9947 18.921 92.3934 14.101 93.8536 10.2443C95.8837 4.8811 101.584 4.7558 104.188 10.0337C106.11 13.9292 103.51 19.8686 102.711 24.9876C105.339 21.3304 110.284 24.6659 110.937 27.3044C111.742 30.5559 111.207 35.1524 110.726 38.4671C110.453 40.3483 109.445 42.718 109.039 44.5752C108.533 46.8889 107.979 49.4521 107.351 51.7359C106.757 53.897 105.678 57.1723 105.031 59.3182C104.155 62.2256 103.643 66.268 102.922 69.2173C102.471 71.0641 101.504 73.4435 101.235 75.3255C100.601 79.7669 101.095 85.7931 101.024 90.2791C100.967 93.8808 100.965 98.6855 100.813 102.284C100.533 108.928 100.445 117.843 99.3371 124.4C98.7799 127.694 96.8062 131.826 96.3844 135.141C94.7967 147.616 98.4932 177.265 97.0171 177.054C95.5406 176.843 50.407 177.265 50.8287 176.843Z"/>
    <path id="path3405" transform="translate(48.1071, 19.7754)" fill="#ffffff" fill-opacity="0.13461509117" stroke="#000000" stroke-width="3.21507001000" stroke-linecap="round" stroke-linejoin="round" d="M0 0C1.7504 9.57068 4.95617 23.1945 8.72957 45.5587L8.72957 45.5587"/>
    <path id="path3407" transform="translate(90.4694, 27.7842)" fill="#ffffff" fill-opacity="0.13461509117" stroke="#000000" stroke-width="3.21507001000" stroke-linecap="round" stroke-linejoin="round" d="M15.2207 0C6.50588 24.8919 10.1102 10.7391 0 42.314"/>
   </g>
  </g>
 </g>
</svg>
